<svg width="76" height="73" viewBox="0 0 76 73" fill="none" xmlns="http://www.w3.org/2000/svg">
<path d="M22.8 58.4C18.62 58.4 15.238 61.685 15.238 65.7C15.238 69.715 18.62 73 22.8 73C26.98 73 30.4 69.715 30.4 65.7C30.4 61.685 26.98 58.4 22.8 58.4ZM0 0V7.3H7.6L21.28 35.0035L16.15 43.946C15.542 44.968 15.2 46.1725 15.2 47.45C15.2 51.465 18.62 54.75 22.8 54.75H68.4V47.45H24.396C23.864 47.45 23.446 47.0485 23.446 46.5375L23.56 46.0995L26.98 40.15H55.29C58.14 40.15 60.648 38.6535 61.94 36.3905L75.544 12.702C75.848 12.191 76 11.5705 76 10.95C76 8.9425 74.29 7.3 72.2 7.3H15.998L12.426 0H0ZM60.8 58.4C56.62 58.4 53.238 61.685 53.238 65.7C53.238 69.715 56.62 73 60.8 73C64.98 73 68.4 69.715 68.4 65.7C68.4 61.685 64.98 58.4 60.8 58.4Z" fill="black"/>
</svg>
