<svg width="93" height="92" viewBox="0 0 93 92" fill="none" xmlns="http://www.w3.org/2000/svg">
<path d="M28.0833 73.5C23.0416 73.5 18.9624 77.625 18.9624 82.6667C18.9624 87.7083 23.0416 91.8333 28.0833 91.8333C33.1249 91.8333 37.2499 87.7083 37.2499 82.6667C37.2499 77.625 33.1249 73.5 28.0833 73.5ZM0.583252 0.166672V9.33334H9.74992L26.2499 44.1208L20.0624 55.35C19.3291 56.6333 18.9166 58.1458 18.9166 59.75C18.9166 64.7917 23.0416 68.9167 28.0833 68.9167H83.0833V59.75H30.0083C29.3666 59.75 28.8624 59.2458 28.8624 58.6042L28.9999 58.0542L33.1249 50.5833H67.2708C70.7083 50.5833 73.7333 48.7042 75.2916 45.8625L91.6999 16.1167C92.0666 15.475 92.2499 14.6958 92.2499 13.9167C92.2499 11.3958 90.1874 9.33334 87.6666 9.33334H19.8791L15.5708 0.166672H0.583252ZM73.9166 73.5C68.8749 73.5 64.7958 77.625 64.7958 82.6667C64.7958 87.7083 68.8749 91.8333 73.9166 91.8333C78.9583 91.8333 83.0833 87.7083 83.0833 82.6667C83.0833 77.625 78.9583 73.5 73.9166 73.5Z" fill="black"/>
</svg>
